<?xml version="1.0" encoding="UTF-8" standalone="no"?>

<svg
   width="60.27417mm"
   height="18.796001mm"
   viewBox="0 0 60.27417 18.796001"
   version="1.1"
   id="svg5"
   xmlns="http://www.w3.org/2000/svg">
  <defs
     id="defs2" />
  <g
     id="layer1">
    <g
       aria-label="FMS"
       id="text236"
       style="font-size:25.4px;fill:#eeeeee;stroke-linecap:round;stroke-linejoin:round">
      <path
         d="M 6.5277999,18.542 H 0 L 2.5654,0.25400009 H 17.399 L 16.6116,5.842 H 8.3311999 l -0.3048,2.032 H 15.0876 L 14.4018,12.7 H 7.3659999 Z"
         style="font-family:'PP Object Sans';-inkscape-font-specification:'PP Object Sans'"
         id="path477" />
      <path
         d="m 22.656776,18.542 h -6.2992 l 2.5654,-18.28799991 h 8.4074 L 29.260776,10.8712 h 0.254 l 4.7498,-10.61719991 h 8.5598 L 40.258976,18.542 h -6.2992 l 1.2954,-9.2456 h -0.254 l -4.2672,9.2456 h -4.8768 l -1.651,-9.2456 h -0.254 z"
         style="font-family:'PP Object Sans';-inkscape-font-specification:'PP Object Sans'"
         id="path479" />
      <path
         d="m 50.266574,18.796 q -2.3114,0 -4.0386,-0.6858 -1.7018,-0.7112 -2.6416,-1.9558 -0.9398,-1.27 -0.9398,-2.8956 0,-0.2794 0.0508,-0.7874 h 6.0706 q -0.1016,0.7874 0.5334,1.27 0.6604,0.4826 1.905,0.4826 0.9906,0 1.6256,-0.3302 0.634999,-0.3556 0.634999,-0.9398 0,-0.5334 -0.6096,-0.762 -0.584199,-0.254 -1.803399,-0.4064 l -0.762,-0.1016 q -1.9812,-0.2286 -3.3528,-0.5842 -1.3462,-0.3556 -2.3622,-1.2954001 -1.016,-0.9651999 -1.016,-2.7177999 0,-0.5588 0.0508,-0.8636 0.254,-1.8542 1.4986,-3.2511999 1.2446,-1.4224 3.2258,-2.18440002 Q 50.342774,9.5367433e-8 52.781174,9.5367433e-8 q 2.260599,0 3.936999,0.711199984632567 1.7018,0.71120002 2.6162,1.98120002 0.9398,1.2699999 0.9398,2.9209999 0,0.5588 -0.0508,0.8382 h -5.8166 q 0.0254,-0.1016 0.0254,-0.3048 0,-0.7366 -0.5588,-1.143 -0.5588,-0.4318 -1.473199,-0.4318 -0.9398,0 -1.5494,0.3556 -0.6096,0.3556 -0.6096,0.9144 0,0.4064 0.4064,0.635 0.4064,0.2286 0.9652,0.3556 0.5842,0.1016 1.854199,0.2794 1.9304,0.2794 3.2766,0.6604 1.3716,0.381 2.3622,1.3716 1.016,0.9652 1.016,2.6924 0,0.5588 -0.0508,0.8636 -0.254,1.8288 -1.6002,3.2004 -1.3208,1.3716 -3.4544,2.1336 -2.1336,0.762 -4.749799,0.762 z"
         style="font-family:'PP Object Sans';-inkscape-font-specification:'PP Object Sans'"
         id="path481" />
    </g>
  </g>
</svg>
